<?xml version="1.0" encoding="UTF-8"?> <svg xmlns="http://www.w3.org/2000/svg" viewBox="0 0 183.3 44.5"><defs><style>.cls-1{fill:#ea5563;}.cls-2{fill:#fff;}</style></defs><g id="Слой_2" data-name="Слой 2"><g id="Слой_1-2" data-name="Слой 1"><path class="cls-1" d="M41.5,0H3A3,3,0,0,0,0,3V41.5a3,3,0,0,0,3,3H41.5a3,3,0,0,0,3-3V3A3,3,0,0,0,41.5,0ZM21.4,22.8V34.5a5.07,5.07,0,0,1-3.3,4.4L11,41.1,7.7,42.2V27.1A5.07,5.07,0,0,1,11,22.7l.7-.2L16,21.1l2.8-.9,2.5-.8v3.4Zm15.5-5v.3a5.07,5.07,0,0,1-3.3,4.4l-6,1.9-3.3,1.1V21.9a5.07,5.07,0,0,1,3.3-4.4l6-1.9,3.3-1.1Zm0-12.9V8.3a5.07,5.07,0,0,1-3.3,4.4l-18.8,6-1.9.6-1.4.4L7.8,20.9V14.2a5.07,5.07,0,0,1,3.3-4.4h0L33.6,2.6l3.3-1Z"></path><path class="cls-2" d="M72.2,11.7v4.1H61.6v5.8H71.7v4.1H61.6V34h-5V11.7Zm6.3,14a4.38,4.38,0,0,0,1.2,3.2,4.16,4.16,0,0,0,3,1.3,3.8,3.8,0,0,0,3-1.3,4.38,4.38,0,0,0,1.2-3.2,4.38,4.38,0,0,0-1.2-3.2,4.16,4.16,0,0,0-3-1.3,3.8,3.8,0,0,0-3,1.3,4.38,4.38,0,0,0-1.2,3.2Zm-2.2-6.2a8.92,8.92,0,0,1,6.4-2.4,9.16,9.16,0,0,1,6.5,2.4,8.14,8.14,0,0,1,2.5,6.2,7.92,7.92,0,0,1-2.5,6.1,10,10,0,0,1-13,0,8.14,8.14,0,0,1-2.5-6.2A8.16,8.16,0,0,1,76.3,19.5Zm22.9-2.1v2.8a5.87,5.87,0,0,1,5.6-3.1v4.4h-1a5,5,0,0,0-3.4,1.1c-.8.7-1.1,1.9-1.1,3.5V34H94.5V17.4Zm11.7,0,3.5,11.2,3.9-11.2h4l3.8,11.2,3.7-11.2h4.3L128.4,34h-4.6l-3.6-10.5L116.5,34h-4.6l-5.7-16.6ZM142,31c2.4,0,3.7-1.3,3.7-4v-.5c-.4.1-1,.1-1.8.2l-1.8.2a4.3,4.3,0,0,0-1.7.5,1.75,1.75,0,0,0-.9,1.7c0,1.3.9,1.9,2.5,1.9Zm-7.1-1.5a4.14,4.14,0,0,1,3-4.3,35.63,35.63,0,0,1,6.2-1.1,6.3,6.3,0,0,0,1.3-.3,1,1,0,0,0,.3-.8,1.51,1.51,0,0,0-.7-1.4,3.68,3.68,0,0,0-2-.5,4.15,4.15,0,0,0-3.7,2.1l-3.2-2.1a7.12,7.12,0,0,1,2.9-2.8,8.16,8.16,0,0,1,4.2-1,7.12,7.12,0,0,1,5.4,1.9,6.89,6.89,0,0,1,1.9,5.3V34H146V31.9c-.9,1.6-2.7,2.3-5.2,2.3a6.43,6.43,0,0,1-4.4-1.3,4.06,4.06,0,0,1-1.5-3.4Zm23.7-12.1v2.8a5.87,5.87,0,0,1,5.6-3.1v4.4h-1a5,5,0,0,0-3.4,1.1c-.8.7-1.1,1.9-1.1,3.5V34h-4.8V17.4Zm11.8,8.3a4.38,4.38,0,0,0,1.2,3.2,4.16,4.16,0,0,0,3,1.3,4.07,4.07,0,0,0,3-1.2,4.46,4.46,0,0,0,1.2-3.3,4.38,4.38,0,0,0-1.2-3.2,4.07,4.07,0,0,0-3-1.2,3.92,3.92,0,0,0-3,1.2,4.38,4.38,0,0,0-1.2,3.2Zm-4.8,0a8.72,8.72,0,0,1,2.2-6.2,7.12,7.12,0,0,1,5.6-2.4,6.64,6.64,0,0,1,5.1,2.1V11h4.8V34h-4.6V31.9a6.31,6.31,0,0,1-5.3,2.3,7.12,7.12,0,0,1-5.6-2.4A8.32,8.32,0,0,1,165.6,25.7Z"></path></g></g></svg> 