<svg width="1048" height="509" viewBox="0 0 1048 509" fill="none" xmlns="http://www.w3.org/2000/svg">
<g filter="url(#filter0_d_375_3)">
<path d="M793.427 290.447C789.288 290.447 786.941 285.706 789.451 282.415L814.475 249.603C815.717 247.975 818.317 248.904 818.245 250.95C818.176 252.931 815.654 253.723 814.465 252.138L790.346 219.979C787.874 216.683 790.226 211.979 794.346 211.979H807.322C808.923 211.979 810.427 212.746 811.367 214.041L828.46 237.573C829.609 239.154 828.519 241.375 826.566 241.435C824.532 241.496 823.326 239.183 824.54 237.551L842.062 213.995C843.005 212.727 844.493 211.979 846.074 211.979H857.687C861.823 211.979 864.171 216.715 861.667 220.006L837.637 251.597C836.442 253.168 833.935 252.323 833.935 250.349C833.935 248.373 836.447 247.53 837.64 249.105L862.869 282.429C865.362 285.722 863.013 290.447 858.882 290.447H845.696C844.082 290.447 842.567 289.668 841.628 288.355L824.034 263.747C822.816 262.043 824.228 259.708 826.303 259.996C828.098 260.244 828.971 262.324 827.892 263.78L809.619 288.425C808.676 289.697 807.186 290.447 805.603 290.447H793.427Z" fill="black"/>
<path d="M742.311 291.614C733.366 291.614 725.49 289.863 718.683 286.363C711.974 282.863 706.772 278.098 703.077 272.07C699.383 265.944 697.535 258.992 697.535 251.213C697.535 243.337 699.334 236.385 702.932 230.356C706.626 224.231 711.634 219.466 717.954 216.063C724.274 212.563 731.421 210.812 739.394 210.812C747.076 210.812 753.979 212.465 760.105 215.771C766.328 218.98 771.238 223.647 774.836 229.773C778.433 235.802 780.232 243.045 780.232 251.505C780.232 252.38 780.184 253.401 780.086 254.568C779.928 256.307 778.465 257.63 776.718 257.63H721.058C718.297 257.63 716.058 255.392 716.058 252.63V249.358C716.058 246.597 718.297 244.358 721.058 244.358H760.63C762.297 244.358 762.784 246.631 761.265 247.315C760.242 247.775 759.08 247.025 758.985 245.907C758.72 242.812 757.926 240.06 756.605 237.649C754.952 234.635 752.667 232.301 749.75 230.648C746.833 228.898 743.429 228.023 739.54 228.023C735.651 228.023 732.199 228.898 729.185 230.648C726.268 232.301 723.983 234.683 722.33 237.795C720.677 240.809 719.85 244.407 719.85 248.588V252.088C719.85 256.366 720.774 260.159 722.621 263.464C724.566 266.673 727.24 269.153 730.643 270.903C734.144 272.556 738.227 273.382 742.895 273.382C747.076 273.382 750.722 272.75 753.833 271.486C755.505 270.828 757.097 269.998 758.61 268.997C760.948 267.45 764.147 267.493 766.048 269.554L771.635 275.611C773.371 277.494 773.428 280.418 771.495 282.099C768.523 284.685 765.066 286.787 761.126 288.405C755.681 290.544 749.409 291.614 742.311 291.614Z" fill="black"/>
<path d="M664.5 290.447C661.739 290.447 659.5 288.208 659.5 285.447V187.226C659.5 184.464 661.739 182.226 664.5 182.226H677.253C680.014 182.226 682.253 184.464 682.253 187.226V285.447C682.253 288.208 680.014 290.447 677.253 290.447H664.5Z" fill="black"/>
<path d="M605.181 291.614C598.569 291.614 592.784 290.155 587.825 287.238C582.866 284.321 578.977 279.897 576.157 273.966C573.434 267.937 572.073 260.353 572.073 251.213C572.073 241.976 573.386 234.392 576.011 228.46C578.636 222.529 582.429 218.105 587.387 215.188C592.346 212.271 598.278 210.812 605.181 210.812C612.571 210.812 619.183 212.514 625.017 215.917C630.948 219.223 635.615 223.89 639.018 229.919C642.519 235.947 644.269 243.045 644.269 251.213C644.269 259.478 642.519 266.625 639.018 272.653C635.615 278.682 630.948 283.349 625.017 286.655C619.183 289.961 612.571 291.614 605.181 291.614ZM563.801 318.742C561.039 318.742 558.801 316.503 558.801 313.742V216.979C558.801 214.218 561.039 211.979 563.801 211.979H575.532C578.294 211.979 580.532 214.218 580.532 216.979V228.023L580.095 251.359L581.553 274.549V313.742C581.553 316.503 579.315 318.742 576.553 318.742H563.801ZM601.243 272.945C605.035 272.945 608.39 272.07 611.307 270.319C614.321 268.569 616.703 266.09 618.454 262.881C620.301 259.575 621.225 255.686 621.225 251.213C621.225 246.643 620.301 242.754 618.454 239.545C616.703 236.336 614.321 233.857 611.307 232.107C608.39 230.356 605.035 229.481 601.243 229.481C597.451 229.481 594.048 230.356 591.034 232.107C588.019 233.857 585.637 236.336 583.887 239.545C582.137 242.754 581.262 246.643 581.262 251.213C581.262 255.686 582.137 259.575 583.887 262.881C585.637 266.09 588.019 268.569 591.034 270.319C594.048 272.07 597.451 272.945 601.243 272.945Z" fill="black"/>
<path d="M506.32 210.812C512.543 210.812 518.037 212.077 522.801 214.605C527.663 217.035 531.455 220.828 534.177 225.981C536.997 231.037 538.407 237.552 538.407 245.525V285.447C538.407 288.208 536.168 290.447 533.407 290.447H520.654C517.893 290.447 515.654 288.208 515.654 285.447V249.025C515.654 242.705 514.342 238.038 511.716 235.024C509.091 232.009 505.396 230.502 500.632 230.502C497.326 230.502 494.36 231.28 491.735 232.836C489.11 234.294 487.068 236.531 485.609 239.545C484.151 242.559 483.421 246.4 483.421 251.067V285.447C483.421 288.208 481.183 290.447 478.421 290.447H465.669C462.907 290.447 460.669 288.208 460.669 285.447V249.025C460.669 242.705 459.356 238.038 456.731 235.024C454.203 232.009 450.557 230.502 445.792 230.502C442.486 230.502 439.521 231.28 436.895 232.836C434.27 234.294 432.228 236.531 430.769 239.545C429.311 242.559 428.582 246.4 428.582 251.067V285.447C428.582 288.208 426.343 290.447 423.582 290.447H410.829C408.068 290.447 405.829 288.208 405.829 285.447V216.979C405.829 214.218 408.068 211.979 410.829 211.979H422.653C425.363 211.979 427.561 214.177 427.561 216.887V227.031C427.561 228.918 425.105 229.648 424.075 228.066C423.705 227.498 423.663 226.773 423.99 226.179C426.675 221.31 430.344 217.598 434.999 215.042C440.055 212.222 445.792 210.812 452.209 210.812C459.405 210.812 465.676 212.66 471.024 216.355C475.256 219.151 478.372 223.122 480.372 228.267C481.179 230.344 479.206 232.269 477.056 231.683C475.333 231.213 474.414 229.321 475.28 227.759C477.898 223.041 481.584 219.191 486.338 216.209C492.172 212.611 498.833 210.812 506.32 210.812Z" fill="black"/>
<path d="M347.596 291.614C339.233 291.614 331.795 289.863 325.28 286.363C318.863 282.863 313.758 278.098 309.966 272.07C306.271 265.944 304.424 258.992 304.424 251.213C304.424 243.337 306.271 236.385 309.966 230.356C313.758 224.231 318.863 219.466 325.28 216.063C331.795 212.563 339.233 210.812 347.596 210.812C355.86 210.812 363.25 212.563 369.765 216.063C376.279 219.466 381.384 224.182 385.079 230.211C388.774 236.239 390.621 243.24 390.621 251.213C390.621 258.992 388.774 265.944 385.079 272.07C381.384 278.098 376.279 282.863 369.765 286.363C363.25 289.863 355.86 291.614 347.596 291.614ZM347.596 272.945C351.388 272.945 354.791 272.07 357.805 270.319C360.819 268.569 363.201 266.09 364.952 262.881C366.702 259.575 367.577 255.686 367.577 251.213C367.577 246.643 366.702 242.754 364.952 239.545C363.201 236.336 360.819 233.857 357.805 232.107C354.791 230.356 351.388 229.481 347.596 229.481C343.803 229.481 340.4 230.356 337.386 232.107C334.372 233.857 331.941 236.336 330.093 239.545C328.343 242.754 327.468 246.643 327.468 251.213C327.468 255.686 328.343 259.575 330.093 262.881C331.941 266.09 334.372 268.569 337.386 270.319C340.4 272.07 343.803 272.945 347.596 272.945Z" fill="black"/>
<path d="M256.461 292.197C248.585 292.197 241.244 290.933 234.437 288.405C227.728 285.78 221.894 282.085 216.935 277.32C211.977 272.556 208.087 266.965 205.267 260.547C202.545 254.13 201.184 247.081 201.184 239.399C201.184 231.718 202.545 224.668 205.267 218.251C208.087 211.833 211.977 206.243 216.935 201.478C221.992 196.714 227.874 193.067 234.583 190.539C241.292 187.914 248.634 186.601 256.607 186.601C265.455 186.601 273.428 188.157 280.526 191.269C286.234 193.66 291.207 196.969 295.447 201.195C297.321 203.064 297.093 206.089 295.147 207.884L287.21 215.212C285.145 217.118 281.939 216.914 279.83 215.057C277.319 212.846 274.634 211.091 271.775 209.792C267.497 207.75 262.83 206.729 257.773 206.729C253.009 206.729 248.634 207.507 244.647 209.062C240.66 210.618 237.209 212.854 234.292 215.771C231.375 218.688 229.09 222.14 227.437 226.127C225.881 230.113 225.103 234.537 225.103 239.399C225.103 244.261 225.881 248.685 227.437 252.672C229.09 256.658 231.375 260.11 234.292 263.027C237.209 265.944 240.66 268.18 244.647 269.736C248.634 271.292 253.009 272.07 257.773 272.07C262.83 272.07 267.497 271.097 271.775 269.153C274.636 267.787 277.323 265.965 279.835 263.687C281.935 261.784 285.173 261.561 287.255 263.483L295.147 270.768C297.093 272.564 297.321 275.587 295.45 277.46C291.21 281.704 286.235 285.061 280.526 287.53C273.428 290.641 265.406 292.197 256.461 292.197Z" fill="black"/>
<path d="M974.039 290.414C971.277 290.414 969.039 288.175 969.039 285.414V208.653C969.039 205.891 966.8 203.653 964.039 203.653H939.823C937.062 203.653 934.823 201.414 934.823 198.653V188.49C934.823 185.728 937.062 183.49 939.823 183.49H1023C1025.76 183.49 1028 185.728 1028 188.49V198.653C1028 201.414 1025.76 203.653 1023 203.653H998.784C996.023 203.653 993.784 205.891 993.784 208.653V285.414C993.784 288.175 991.545 290.414 988.784 290.414H974.039Z" fill="black"/>
<path d="M901.771 290.414C899.009 290.414 896.771 288.175 896.771 285.414V188.49C896.771 185.728 899.009 183.49 901.771 183.49H916.516C919.277 183.49 921.516 185.728 921.516 188.49V285.414C921.516 288.175 919.277 290.414 916.516 290.414H901.771Z" fill="black"/>
<path d="M332.34 160.337C333.372 163.17 336.043 165.128 339.059 165.128H484.376C489.198 165.128 492.578 160.4 490.771 155.93C459.319 78.0816 358.928 -42.1904 173.721 14.8484C166.814 16.9758 167.527 27.438 174.498 29.3483C226.745 43.6662 303.844 82.1549 332.34 160.337Z" fill="black"/>
<path d="M162.632 137.4C169.054 137.4 172.383 145.615 168.207 150.495C134.564 189.812 102.426 267.266 170.215 349.814C174.105 354.551 170.892 361.999 164.763 361.999H33.5432C30.9237 361.999 28.5147 360.548 27.3858 358.184C8.81166 319.294 -14.3145 228.112 27.3664 141.288C28.5109 138.904 30.9467 137.4 33.5913 137.4H162.632Z" fill="black"/>
<path d="M172.689 473.263C165.768 474.729 164.412 484.183 171.104 486.48C251.892 514.215 398.186 515.657 488.974 345.831C491.429 341.238 488.107 335.657 482.9 335.657H338.933C335.979 335.657 333.362 337.503 332.261 340.245C316.006 380.717 265.23 453.651 172.689 473.263Z" fill="black"/>
</g>
<path d="M727.056 386.576C725.904 386.576 724.965 386.299 724.24 385.744C723.515 385.189 723.109 384.421 723.024 383.44L719.888 353.872C720.443 353.573 721.125 353.424 721.936 353.424C723.685 353.424 724.624 354.192 724.752 355.728L726.672 378.384L725.648 380.816L725.904 380.944L737.936 355.024C738.491 353.957 739.323 353.424 740.432 353.424C740.944 353.424 741.392 353.573 741.776 353.872C742.16 354.171 742.373 354.555 742.416 355.024L744.848 378.576L743.76 381.008L744.08 381.136L755.28 355.728C756.005 354.192 757.2 353.424 758.864 353.424C759.675 353.424 760.315 353.573 760.784 353.872L747.216 383.44C746.235 385.531 744.592 386.576 742.288 386.576L739.216 358.224L738.96 358.288L739.216 360.464L727.056 386.576ZM771.21 386.576C767.796 386.576 765.044 385.701 762.954 383.952C760.906 382.203 759.882 379.92 759.882 377.104C759.882 376.421 759.946 375.739 760.074 375.056L761.802 365.2C762.186 362.896 763.082 360.848 764.49 359.056C765.94 357.264 767.754 355.877 769.93 354.896C772.106 353.915 774.474 353.424 777.034 353.424C780.319 353.424 782.986 354.341 785.034 356.176C787.124 357.968 788.17 360.272 788.17 363.088C788.17 363.728 788.106 364.411 787.978 365.136L787.274 369.36C787.146 369.915 786.826 370.405 786.314 370.832C785.802 371.259 785.247 371.472 784.65 371.472H765.322L764.746 374.928C764.618 375.568 764.554 376.187 764.554 376.784C764.554 378.661 765.172 380.091 766.41 381.072C767.69 382.053 769.546 382.544 771.978 382.544C774.623 382.544 776.799 381.947 778.506 380.752C780.255 379.515 781.322 377.808 781.706 375.632C782.644 375.589 783.434 375.824 784.074 376.336C784.714 376.805 785.034 377.403 785.034 378.128C785.034 379.536 784.372 380.901 783.05 382.224C781.727 383.504 779.999 384.549 777.866 385.36C775.732 386.171 773.514 386.576 771.21 386.576ZM783.178 367.632L783.626 365.136C783.711 364.752 783.754 364.197 783.754 363.472C783.754 361.552 783.114 360.08 781.834 359.056C780.554 357.989 778.74 357.456 776.394 357.456C773.791 357.456 771.594 358.16 769.802 359.568C768.01 360.976 766.9 362.832 766.474 365.136L766.026 367.632H783.178ZM799.465 344.592C799.977 341.947 801.79 340.624 804.905 340.624L802.089 356.496C801.278 357.221 800.766 357.712 800.553 357.968L800.617 358.288C802.195 356.837 803.987 355.664 805.993 354.768C807.998 353.872 809.982 353.424 811.945 353.424C815.102 353.424 817.662 354.256 819.625 355.92C821.587 357.541 822.569 359.696 822.569 362.384C822.569 362.981 822.505 363.643 822.377 364.368L820.393 375.568C819.795 379.024 818.259 381.733 815.785 383.696C813.31 385.616 810.131 386.576 806.249 386.576C804.073 386.576 802.153 386.085 800.489 385.104C798.867 384.123 797.523 382.779 796.457 381.072L796.265 381.328L797.225 382.928C796.841 385.36 795.113 386.576 792.041 386.576L799.465 344.592ZM806.057 382.416C808.83 382.416 811.027 381.819 812.649 380.624C814.313 379.387 815.358 377.659 815.785 375.44L817.705 364.496C817.833 363.899 817.897 363.365 817.897 362.896C817.897 361.189 817.257 359.888 815.977 358.992C814.739 358.053 812.905 357.584 810.473 357.584C808.126 357.584 805.971 358.245 804.009 359.568C802.089 360.848 800.979 362.384 800.681 364.176L798.697 375.76C798.654 375.973 798.633 376.315 798.633 376.784C798.633 378.405 799.315 379.749 800.681 380.816C802.089 381.883 803.881 382.416 806.057 382.416ZM828.636 369.552C828.892 368.187 829.425 367.12 830.236 366.352C831.089 365.541 832.135 365.136 833.372 365.136H851.676C851.463 366.544 850.929 367.632 850.076 368.4C849.223 369.168 848.156 369.552 846.876 369.552H828.636ZM867.248 386.576C865.072 386.576 863.109 386.277 861.36 385.68C859.611 385.04 858.245 384.187 857.264 383.12C856.283 382.011 855.792 380.773 855.792 379.408C855.792 376.805 857.093 375.44 859.696 375.312C859.568 380.176 862.277 382.608 867.824 382.608C870.725 382.608 872.965 382.096 874.544 381.072C876.123 380.005 876.912 378.533 876.912 376.656C876.912 375.419 876.315 374.437 875.12 373.712C873.968 372.987 871.856 372.283 868.784 371.6C865.328 370.832 862.789 369.787 861.168 368.464C859.589 367.099 858.8 365.371 858.8 363.28C858.8 360.336 859.995 357.968 862.384 356.176C864.773 354.341 867.909 353.424 871.792 353.424C873.883 353.424 875.781 353.723 877.488 354.32C879.195 354.875 880.539 355.664 881.52 356.688C882.501 357.712 882.992 358.864 882.992 360.144C882.992 361.296 882.608 362.213 881.84 362.896C881.115 363.536 880.069 363.877 878.704 363.92C878.747 363.707 878.768 363.429 878.768 363.088C878.768 361.296 878.128 359.888 876.848 358.864C875.568 357.84 873.797 357.328 871.536 357.328C869.147 357.328 867.184 357.861 865.648 358.928C864.155 359.952 863.408 361.296 863.408 362.96C863.408 364.069 863.92 364.965 864.944 365.648C866.011 366.331 867.824 366.949 870.384 367.504C874.181 368.315 876.976 369.445 878.768 370.896C880.603 372.304 881.52 374.117 881.52 376.336C881.52 379.579 880.261 382.096 877.744 383.888C875.227 385.68 871.728 386.576 867.248 386.576ZM897.449 386.576C895.188 386.576 893.417 385.979 892.137 384.784C890.9 383.589 890.281 381.925 890.281 379.792C890.281 379.067 890.345 378.363 890.473 377.68L893.929 357.904H888.169C888.382 356.667 888.83 355.707 889.513 355.024C890.238 354.341 891.134 354 892.201 354H894.633L895.785 347.6C896.254 345.083 898.025 343.824 901.097 343.824L899.305 354H907.817C907.604 355.28 907.113 356.261 906.345 356.944C905.62 357.584 904.66 357.904 903.465 357.904H898.665L895.209 377.488C895.081 378.171 895.017 378.768 895.017 379.28C895.017 380.389 895.316 381.2 895.913 381.712C896.51 382.181 897.47 382.416 898.793 382.416C900.244 382.416 901.694 382.032 903.145 381.264C903.358 381.52 903.465 381.947 903.465 382.544C903.465 383.696 902.889 384.656 901.737 385.424C900.585 386.192 899.156 386.576 897.449 386.576ZM936.474 382.352C936.005 385.168 934.255 386.576 931.226 386.576L931.994 382.352C932.463 382.011 932.975 381.499 933.53 380.816L933.338 380.496C931.589 382.416 929.647 383.909 927.514 384.976C925.381 386.043 923.205 386.576 920.986 386.576C918.042 386.576 915.674 385.744 913.882 384.08C912.09 382.373 911.194 380.155 911.194 377.424C911.194 376.741 911.258 376.016 911.386 375.248L914.522 357.2C914.949 354.683 916.762 353.424 919.962 353.424L916.122 375.12C915.994 375.803 915.93 376.443 915.93 377.04C915.93 380.624 918.149 382.416 922.586 382.416C924.207 382.416 925.786 382.075 927.322 381.392C928.858 380.667 930.159 379.728 931.226 378.576C932.293 377.424 932.933 376.187 933.146 374.864L936.218 357.2C936.474 355.92 937.05 354.981 937.946 354.384C938.842 353.744 940.079 353.424 941.658 353.424L936.474 382.352ZM956.878 386.576C953.678 386.576 951.096 385.765 949.134 384.144C947.214 382.48 946.254 380.283 946.254 377.552C946.254 376.912 946.318 376.251 946.446 375.568L948.43 364.368C949.027 360.997 950.627 358.331 953.23 356.368C955.875 354.405 959.096 353.424 962.894 353.424C966.862 353.424 970.019 355.045 972.366 358.288L972.622 357.968C972.195 357.371 971.832 356.88 971.534 356.496L973.646 344.592C974.115 341.947 975.928 340.624 979.086 340.624L971.726 382.352C971.171 385.168 969.4 386.576 966.414 386.576L967.054 382.928C967.054 382.928 967.587 382.395 968.654 381.328L968.462 381.072C964.878 384.741 961.016 386.576 956.878 386.576ZM958.478 382.416C960.867 382.416 963 381.776 964.878 380.496C966.798 379.173 967.907 377.595 968.206 375.76L970.19 364.176C970.275 363.664 970.318 363.301 970.318 363.088C970.318 361.467 969.635 360.144 968.27 359.12C966.947 358.096 965.112 357.584 962.766 357.584C960.035 357.584 957.838 358.203 956.174 359.44C954.51 360.635 953.486 362.32 953.102 364.496L951.182 375.44C951.096 375.824 951.054 376.357 951.054 377.04C951.054 378.789 951.672 380.133 952.91 381.072C954.19 381.968 956.046 382.416 958.478 382.416ZM990.977 347.984C990.038 347.984 989.249 347.685 988.609 347.088C988.012 346.491 987.713 345.765 987.713 344.912C987.713 343.803 988.161 342.821 989.057 341.968C989.996 341.072 991.062 340.624 992.257 340.624C993.196 340.624 993.964 340.901 994.561 341.456C995.158 342.011 995.457 342.736 995.457 343.632C995.457 344.741 994.988 345.744 994.049 346.64C993.153 347.536 992.129 347.984 990.977 347.984ZM986.945 357.264C987.414 354.704 989.206 353.424 992.321 353.424L987.137 382.8C986.71 385.317 984.918 386.576 981.761 386.576L986.945 357.264ZM1007.83 386.576C1005.65 386.576 1003.69 386.192 1001.94 385.424C1000.19 384.613 998.802 383.504 997.778 382.096C996.754 380.688 996.242 379.088 996.242 377.296C996.242 376.571 996.284 376.016 996.37 375.632L998.29 364.624C998.887 361.211 1000.59 358.501 1003.41 356.496C1006.27 354.448 1009.7 353.424 1013.71 353.424C1016.02 353.424 1018.04 353.851 1019.79 354.704C1021.59 355.557 1022.95 356.731 1023.89 358.224C1024.87 359.675 1025.36 361.275 1025.36 363.024C1025.36 363.323 1025.32 363.856 1025.23 364.624L1023.25 375.632C1022.69 378.832 1021.03 381.456 1018.26 383.504C1015.48 385.552 1012.01 386.576 1007.83 386.576ZM1008.59 382.48C1011.28 382.48 1013.54 381.84 1015.38 380.56C1017.25 379.28 1018.36 377.595 1018.71 375.504L1020.56 364.752C1020.65 364.069 1020.69 363.579 1020.69 363.28C1020.69 361.531 1020.03 360.144 1018.71 359.12C1017.43 358.053 1015.51 357.52 1012.95 357.52C1010.26 357.52 1007.97 358.203 1006.1 359.568C1004.26 360.891 1003.15 362.619 1002.77 364.752L1000.91 375.504C1000.83 376.101 1000.79 376.507 1000.79 376.72C1000.79 378.469 1001.43 379.877 1002.71 380.944C1004.03 381.968 1005.99 382.48 1008.59 382.48Z" fill="url(#paint0_linear_375_3)"/>
<path d="M994.659 107.706C988.829 107.529 983.531 108.323 978.752 109.797C970.727 114.888 954.711 130.391 954.855 151.679V151.679C954.673 158.364 959.944 163.931 966.63 164.113L991.624 164.795C999.464 165.008 1006.25 159.385 1007.5 151.642V151.642C1010.16 156.583 1015.86 167.539 1017.36 171.836C1017.98 173.474 1018.81 175.855 1019.69 178.579C1024.78 183.171 1036.54 193.19 1042.86 196.532C1045.89 177.425 1047.96 151.627 1042.03 138.998C1041.22 136.845 1039.9 134.221 1038.06 131.418C1017.46 129.407 1003.33 114.952 998.84 107.976C997.481 107.841 996.087 107.749 994.659 107.706Z" fill="#FF3314"/>
<path d="M945.746 141.128C944.354 143.732 941.616 153.107 941.795 169.776L1007.64 171.571L1017.36 171.836C1015.86 167.539 1010.16 156.583 1007.5 151.642V151.642C1006.25 159.385 999.464 165.008 991.624 164.795L966.63 164.113C959.944 163.931 954.673 158.364 954.855 151.679V151.679C954.711 130.391 970.727 114.888 978.752 109.797C959.944 115.602 949.186 131.954 945.746 141.128Z" fill="#B21800"/>
<path d="M1023.95 196.017L1025.86 213.277L1037.24 215.172L1040.06 211.4C1040.95 207.406 1041.95 202.271 1042.86 196.532C1036.54 193.19 1024.78 183.171 1019.69 178.579C1021.46 184.1 1023.4 191.029 1023.95 196.017Z" fill="#B21800"/>
<path d="M1038.06 131.418C1031.69 121.767 1019.02 109.991 998.84 107.976C1003.33 114.952 1017.46 129.407 1038.06 131.418Z" fill="#FF7561"/>
<path d="M938.288 169.681C933.915 169.561 930.273 173.01 930.153 177.384L930.042 181.456C929.862 188.079 935.084 193.594 941.707 193.775L1023.95 196.017C1023.4 191.029 1021.46 184.1 1019.69 178.579C1018.81 175.855 1017.98 173.474 1017.36 171.836L1007.64 171.571V171.571C1012.81 182.364 1002.74 189.665 990.78 189.338L956.005 188.39C945.946 188.116 938.014 179.739 938.288 169.681V169.681V169.681Z" fill="#E3E3E3"/>
<path d="M941.795 169.776L938.288 169.681V169.681C938.014 179.739 945.946 188.116 956.005 188.39L990.78 189.338C1002.74 189.665 1012.81 182.364 1007.64 171.571V171.571L941.795 169.776Z" fill="#F7F9F2"/>
<path fill-rule="evenodd" clip-rule="evenodd" d="M1040.47 219.336C1042.45 217.394 1043.71 214.715 1043.79 211.728C1043.95 205.605 1039.13 200.506 1033 200.339C1031.35 200.294 1029.77 200.614 1028.34 201.226C1025.99 207.277 1025.13 219.37 1040.47 219.336Z" fill="white"/>
<path d="M1021.61 211.123C1021.45 217.246 1026.28 222.345 1032.4 222.512C1035.53 222.597 1038.4 221.373 1040.47 219.336C1025.13 219.37 1025.99 207.277 1028.34 201.226C1024.48 202.878 1021.74 206.656 1021.61 211.123Z" fill="#E3E3E3"/>
<defs>
<filter id="filter0_d_375_3" x="0" y="0" width="1032" height="508.441" filterUnits="userSpaceOnUse" color-interpolation-filters="sRGB">
<feFlood flood-opacity="0" result="BackgroundImageFix"/>
<feColorMatrix in="SourceAlpha" type="matrix" values="0 0 0 0 0 0 0 0 0 0 0 0 0 0 0 0 0 0 127 0" result="hardAlpha"/>
<feOffset dy="4"/>
<feGaussianBlur stdDeviation="2"/>
<feComposite in2="hardAlpha" operator="out"/>
<feColorMatrix type="matrix" values="0 0 0 0 0 0 0 0 0 0 0 0 0 0 0 0 0 0 0.25 0"/>
<feBlend mode="normal" in2="BackgroundImageFix" result="effect1_dropShadow_375_3"/>
<feBlend mode="normal" in="SourceGraphic" in2="effect1_dropShadow_375_3" result="shape"/>
</filter>
<linearGradient id="paint0_linear_375_3" x1="622.5" y1="365.5" x2="1061" y2="370" gradientUnits="userSpaceOnUse">
<stop stop-color="#0019FF"/>
<stop offset="1" stop-color="#003D84"/>
</linearGradient>
</defs>
</svg>
