<svg width="1046" height="501" viewBox="0 0 1046 501" fill="none" xmlns="http://www.w3.org/2000/svg">
<path d="M789.427 290.447C785.288 290.447 782.941 285.706 785.451 282.415L810.475 249.603C811.717 247.975 814.317 248.904 814.245 250.95C814.176 252.931 811.654 253.723 810.465 252.138L786.346 219.979C783.874 216.683 786.226 211.979 790.346 211.979H803.322C804.923 211.979 806.427 212.746 807.367 214.041L824.46 237.573C825.609 239.154 824.519 241.375 822.566 241.435C820.532 241.496 819.326 239.183 820.54 237.551L838.062 213.995C839.005 212.727 840.493 211.979 842.074 211.979H853.687C857.823 211.979 860.171 216.715 857.667 220.006L833.637 251.597C832.442 253.168 829.935 252.323 829.935 250.349C829.935 248.373 832.447 247.53 833.64 249.105L858.869 282.429C861.362 285.722 859.013 290.447 854.882 290.447H841.696C840.082 290.447 838.567 289.668 837.628 288.355L820.034 263.747C818.816 262.043 820.228 259.708 822.303 259.996C824.098 260.244 824.971 262.324 823.892 263.78L805.619 288.425C804.676 289.697 803.186 290.447 801.603 290.447H789.427Z" fill="black"/>
<path d="M738.311 291.614C729.366 291.614 721.49 289.863 714.683 286.363C707.974 282.863 702.772 278.098 699.077 272.07C695.383 265.944 693.535 258.992 693.535 251.213C693.535 243.337 695.334 236.385 698.932 230.356C702.626 224.231 707.634 219.466 713.954 216.063C720.274 212.563 727.421 210.812 735.394 210.812C743.076 210.812 749.979 212.465 756.105 215.771C762.328 218.98 767.238 223.647 770.836 229.773C774.433 235.802 776.232 243.045 776.232 251.505C776.232 252.38 776.184 253.401 776.086 254.568C775.928 256.307 774.465 257.63 772.718 257.63H717.058C714.297 257.63 712.058 255.392 712.058 252.63V249.358C712.058 246.597 714.297 244.358 717.058 244.358H756.63C758.297 244.358 758.784 246.631 757.265 247.315C756.242 247.775 755.08 247.025 754.985 245.907C754.72 242.812 753.926 240.06 752.605 237.649C750.952 234.635 748.667 232.301 745.75 230.648C742.833 228.898 739.429 228.023 735.54 228.023C731.651 228.023 728.199 228.898 725.185 230.648C722.268 232.301 719.983 234.683 718.33 237.795C716.677 240.809 715.85 244.407 715.85 248.588V252.088C715.85 256.366 716.774 260.159 718.621 263.464C720.566 266.673 723.24 269.153 726.643 270.903C730.144 272.556 734.227 273.382 738.895 273.382C743.076 273.382 746.722 272.75 749.833 271.486C751.505 270.828 753.097 269.998 754.61 268.997C756.948 267.45 760.147 267.493 762.048 269.554L767.635 275.611C769.371 277.494 769.428 280.418 767.495 282.099C764.523 284.685 761.066 286.787 757.126 288.405C751.681 290.544 745.409 291.614 738.311 291.614Z" fill="black"/>
<path d="M660.5 290.447C657.739 290.447 655.5 288.208 655.5 285.447V187.226C655.5 184.464 657.739 182.226 660.5 182.226H673.253C676.014 182.226 678.253 184.464 678.253 187.226V285.447C678.253 288.208 676.014 290.447 673.253 290.447H660.5Z" fill="black"/>
<path d="M601.181 291.614C594.569 291.614 588.784 290.155 583.825 287.238C578.866 284.321 574.977 279.897 572.157 273.966C569.434 267.937 568.073 260.353 568.073 251.213C568.073 241.976 569.386 234.392 572.011 228.46C574.636 222.529 578.429 218.105 583.387 215.188C588.346 212.271 594.278 210.812 601.181 210.812C608.571 210.812 615.183 212.514 621.017 215.917C626.948 219.223 631.615 223.89 635.018 229.919C638.519 235.947 640.269 243.045 640.269 251.213C640.269 259.478 638.519 266.625 635.018 272.653C631.615 278.682 626.948 283.349 621.017 286.655C615.183 289.961 608.571 291.614 601.181 291.614ZM559.801 318.742C557.039 318.742 554.801 316.503 554.801 313.742V216.979C554.801 214.218 557.039 211.979 559.801 211.979H571.532C574.294 211.979 576.532 214.218 576.532 216.979V228.023L576.095 251.359L577.553 274.549V313.742C577.553 316.503 575.315 318.742 572.553 318.742H559.801ZM597.243 272.945C601.035 272.945 604.39 272.07 607.307 270.319C610.321 268.569 612.703 266.09 614.454 262.881C616.301 259.575 617.225 255.686 617.225 251.213C617.225 246.643 616.301 242.754 614.454 239.545C612.703 236.336 610.321 233.857 607.307 232.107C604.39 230.356 601.035 229.481 597.243 229.481C593.451 229.481 590.048 230.356 587.034 232.107C584.019 233.857 581.637 236.336 579.887 239.545C578.137 242.754 577.262 246.643 577.262 251.213C577.262 255.686 578.137 259.575 579.887 262.881C581.637 266.09 584.019 268.569 587.034 270.319C590.048 272.07 593.451 272.945 597.243 272.945Z" fill="black"/>
<path d="M502.32 210.812C508.543 210.812 514.037 212.077 518.801 214.605C523.663 217.035 527.455 220.828 530.177 225.981C532.997 231.037 534.407 237.552 534.407 245.525V285.447C534.407 288.208 532.168 290.447 529.407 290.447H516.654C513.893 290.447 511.654 288.208 511.654 285.447V249.025C511.654 242.705 510.342 238.038 507.716 235.024C505.091 232.009 501.396 230.502 496.632 230.502C493.326 230.502 490.36 231.28 487.735 232.836C485.11 234.294 483.068 236.531 481.609 239.545C480.151 242.559 479.421 246.4 479.421 251.067V285.447C479.421 288.208 477.183 290.447 474.421 290.447H461.669C458.907 290.447 456.669 288.208 456.669 285.447V249.025C456.669 242.705 455.356 238.038 452.731 235.024C450.203 232.009 446.557 230.502 441.792 230.502C438.486 230.502 435.521 231.28 432.895 232.836C430.27 234.294 428.228 236.531 426.769 239.545C425.311 242.559 424.582 246.4 424.582 251.067V285.447C424.582 288.208 422.343 290.447 419.582 290.447H406.829C404.068 290.447 401.829 288.208 401.829 285.447V216.979C401.829 214.218 404.068 211.979 406.829 211.979H418.653C421.363 211.979 423.561 214.177 423.561 216.887V227.031C423.561 228.918 421.105 229.648 420.075 228.066C419.705 227.498 419.663 226.773 419.99 226.179C422.675 221.31 426.344 217.598 430.999 215.042C436.055 212.222 441.792 210.812 448.209 210.812C455.405 210.812 461.676 212.66 467.024 216.355C471.256 219.151 474.372 223.122 476.372 228.267C477.179 230.344 475.206 232.269 473.056 231.683C471.333 231.213 470.414 229.321 471.28 227.759C473.898 223.041 477.584 219.191 482.338 216.209C488.172 212.611 494.833 210.812 502.32 210.812Z" fill="black"/>
<path d="M343.596 291.614C335.233 291.614 327.795 289.863 321.28 286.363C314.863 282.863 309.758 278.098 305.966 272.07C302.271 265.944 300.424 258.992 300.424 251.213C300.424 243.337 302.271 236.385 305.966 230.356C309.758 224.231 314.863 219.466 321.28 216.063C327.795 212.563 335.233 210.812 343.596 210.812C351.86 210.812 359.25 212.563 365.765 216.063C372.279 219.466 377.384 224.182 381.079 230.211C384.774 236.239 386.621 243.24 386.621 251.213C386.621 258.992 384.774 265.944 381.079 272.07C377.384 278.098 372.279 282.863 365.765 286.363C359.25 289.863 351.86 291.614 343.596 291.614ZM343.596 272.945C347.388 272.945 350.791 272.07 353.805 270.319C356.819 268.569 359.201 266.09 360.952 262.881C362.702 259.575 363.577 255.686 363.577 251.213C363.577 246.643 362.702 242.754 360.952 239.545C359.201 236.336 356.819 233.857 353.805 232.107C350.791 230.356 347.388 229.481 343.596 229.481C339.803 229.481 336.4 230.356 333.386 232.107C330.372 233.857 327.941 236.336 326.093 239.545C324.343 242.754 323.468 246.643 323.468 251.213C323.468 255.686 324.343 259.575 326.093 262.881C327.941 266.09 330.372 268.569 333.386 270.319C336.4 272.07 339.803 272.945 343.596 272.945Z" fill="black"/>
<path d="M252.461 292.197C244.585 292.197 237.244 290.933 230.437 288.405C223.728 285.78 217.894 282.085 212.935 277.32C207.977 272.556 204.087 266.965 201.267 260.547C198.545 254.13 197.184 247.081 197.184 239.399C197.184 231.718 198.545 224.668 201.267 218.251C204.087 211.833 207.977 206.243 212.935 201.478C217.992 196.714 223.874 193.067 230.583 190.539C237.292 187.914 244.634 186.601 252.607 186.601C261.455 186.601 269.428 188.157 276.526 191.269C282.234 193.66 287.207 196.969 291.447 201.195C293.321 203.064 293.093 206.089 291.147 207.884L283.21 215.212C281.145 217.118 277.939 216.914 275.83 215.057C273.319 212.846 270.634 211.091 267.775 209.792C263.497 207.75 258.83 206.729 253.773 206.729C249.009 206.729 244.634 207.507 240.647 209.062C236.66 210.618 233.209 212.854 230.292 215.771C227.375 218.688 225.09 222.14 223.437 226.127C221.881 230.113 221.103 234.537 221.103 239.399C221.103 244.261 221.881 248.685 223.437 252.672C225.09 256.658 227.375 260.11 230.292 263.027C233.209 265.944 236.66 268.18 240.647 269.736C244.634 271.292 249.009 272.07 253.773 272.07C258.83 272.07 263.497 271.097 267.775 269.153C270.636 267.787 273.323 265.965 275.835 263.687C277.935 261.784 281.173 261.561 283.255 263.483L291.147 270.768C293.093 272.564 293.321 275.587 291.45 277.46C287.21 281.704 282.235 285.061 276.526 287.53C269.428 290.641 261.406 292.197 252.461 292.197Z" fill="black"/>
<path d="M970.039 290.414C967.277 290.414 965.039 288.175 965.039 285.414V208.653C965.039 205.891 962.8 203.653 960.039 203.653H935.823C933.062 203.653 930.823 201.414 930.823 198.653V188.49C930.823 185.728 933.062 183.49 935.823 183.49H1019C1021.76 183.49 1024 185.728 1024 188.49V198.653C1024 201.414 1021.76 203.653 1019 203.653H994.784C992.023 203.653 989.784 205.891 989.784 208.653V285.414C989.784 288.175 987.545 290.414 984.784 290.414H970.039Z" fill="black"/>
<path d="M897.771 290.414C895.009 290.414 892.771 288.175 892.771 285.414V188.49C892.771 185.728 895.009 183.49 897.771 183.49H912.516C915.277 183.49 917.516 185.728 917.516 188.49V285.414C917.516 288.175 915.277 290.414 912.516 290.414H897.771Z" fill="black"/>
<path d="M328.34 160.337C329.372 163.17 332.043 165.128 335.059 165.128H480.376C485.198 165.128 488.578 160.4 486.771 155.93C455.319 78.0816 354.928 -42.1904 169.721 14.8484C162.814 16.9758 163.527 27.438 170.498 29.3483C222.745 43.6662 299.844 82.1549 328.34 160.337Z" fill="black"/>
<path d="M158.632 137.4C165.054 137.4 168.383 145.615 164.207 150.495C130.564 189.812 98.4258 267.266 166.215 349.814C170.105 354.551 166.892 361.999 160.763 361.999H29.5432C26.9237 361.999 24.5147 360.548 23.3858 358.184C4.81166 319.294 -18.3145 228.112 23.3664 141.288C24.5109 138.904 26.9467 137.4 29.5913 137.4H158.632Z" fill="black"/>
<path d="M168.689 473.263C161.768 474.729 160.412 484.183 167.104 486.48C247.892 514.215 394.186 515.657 484.974 345.831C487.429 341.238 484.107 335.657 478.9 335.657H334.933C331.979 335.657 329.362 337.503 328.261 340.245C312.006 380.717 261.23 453.651 168.689 473.263Z" fill="black"/>
<path d="M723.056 386.576C721.904 386.576 720.965 386.299 720.24 385.744C719.515 385.189 719.109 384.421 719.024 383.44L715.888 353.872C716.443 353.573 717.125 353.424 717.936 353.424C719.685 353.424 720.624 354.192 720.752 355.728L722.672 378.384L721.648 380.816L721.904 380.944L733.936 355.024C734.491 353.957 735.323 353.424 736.432 353.424C736.944 353.424 737.392 353.573 737.776 353.872C738.16 354.171 738.373 354.555 738.416 355.024L740.848 378.576L739.76 381.008L740.08 381.136L751.28 355.728C752.005 354.192 753.2 353.424 754.864 353.424C755.675 353.424 756.315 353.573 756.784 353.872L743.216 383.44C742.235 385.531 740.592 386.576 738.288 386.576L735.216 358.224L734.96 358.288L735.216 360.464L723.056 386.576ZM767.21 386.576C763.796 386.576 761.044 385.701 758.954 383.952C756.906 382.203 755.882 379.92 755.882 377.104C755.882 376.421 755.946 375.739 756.074 375.056L757.802 365.2C758.186 362.896 759.082 360.848 760.49 359.056C761.94 357.264 763.754 355.877 765.93 354.896C768.106 353.915 770.474 353.424 773.034 353.424C776.319 353.424 778.986 354.341 781.034 356.176C783.124 357.968 784.17 360.272 784.17 363.088C784.17 363.728 784.106 364.411 783.978 365.136L783.274 369.36C783.146 369.915 782.826 370.405 782.314 370.832C781.802 371.259 781.247 371.472 780.65 371.472H761.322L760.746 374.928C760.618 375.568 760.554 376.187 760.554 376.784C760.554 378.661 761.172 380.091 762.41 381.072C763.69 382.053 765.546 382.544 767.978 382.544C770.623 382.544 772.799 381.947 774.506 380.752C776.255 379.515 777.322 377.808 777.706 375.632C778.644 375.589 779.434 375.824 780.074 376.336C780.714 376.805 781.034 377.403 781.034 378.128C781.034 379.536 780.372 380.901 779.05 382.224C777.727 383.504 775.999 384.549 773.866 385.36C771.732 386.171 769.514 386.576 767.21 386.576ZM779.178 367.632L779.626 365.136C779.711 364.752 779.754 364.197 779.754 363.472C779.754 361.552 779.114 360.08 777.834 359.056C776.554 357.989 774.74 357.456 772.394 357.456C769.791 357.456 767.594 358.16 765.802 359.568C764.01 360.976 762.9 362.832 762.474 365.136L762.026 367.632H779.178ZM795.465 344.592C795.977 341.947 797.79 340.624 800.905 340.624L798.089 356.496C797.278 357.221 796.766 357.712 796.553 357.968L796.617 358.288C798.195 356.837 799.987 355.664 801.993 354.768C803.998 353.872 805.982 353.424 807.945 353.424C811.102 353.424 813.662 354.256 815.625 355.92C817.587 357.541 818.569 359.696 818.569 362.384C818.569 362.981 818.505 363.643 818.377 364.368L816.393 375.568C815.795 379.024 814.259 381.733 811.785 383.696C809.31 385.616 806.131 386.576 802.249 386.576C800.073 386.576 798.153 386.085 796.489 385.104C794.867 384.123 793.523 382.779 792.457 381.072L792.265 381.328L793.225 382.928C792.841 385.36 791.113 386.576 788.041 386.576L795.465 344.592ZM802.057 382.416C804.83 382.416 807.027 381.819 808.649 380.624C810.313 379.387 811.358 377.659 811.785 375.44L813.705 364.496C813.833 363.899 813.897 363.365 813.897 362.896C813.897 361.189 813.257 359.888 811.977 358.992C810.739 358.053 808.905 357.584 806.473 357.584C804.126 357.584 801.971 358.245 800.009 359.568C798.089 360.848 796.979 362.384 796.681 364.176L794.697 375.76C794.654 375.973 794.633 376.315 794.633 376.784C794.633 378.405 795.315 379.749 796.681 380.816C798.089 381.883 799.881 382.416 802.057 382.416ZM824.636 369.552C824.892 368.187 825.425 367.12 826.236 366.352C827.089 365.541 828.135 365.136 829.372 365.136H847.676C847.463 366.544 846.929 367.632 846.076 368.4C845.223 369.168 844.156 369.552 842.876 369.552H824.636ZM863.248 386.576C861.072 386.576 859.109 386.277 857.36 385.68C855.611 385.04 854.245 384.187 853.264 383.12C852.283 382.011 851.792 380.773 851.792 379.408C851.792 376.805 853.093 375.44 855.696 375.312C855.568 380.176 858.277 382.608 863.824 382.608C866.725 382.608 868.965 382.096 870.544 381.072C872.123 380.005 872.912 378.533 872.912 376.656C872.912 375.419 872.315 374.437 871.12 373.712C869.968 372.987 867.856 372.283 864.784 371.6C861.328 370.832 858.789 369.787 857.168 368.464C855.589 367.099 854.8 365.371 854.8 363.28C854.8 360.336 855.995 357.968 858.384 356.176C860.773 354.341 863.909 353.424 867.792 353.424C869.883 353.424 871.781 353.723 873.488 354.32C875.195 354.875 876.539 355.664 877.52 356.688C878.501 357.712 878.992 358.864 878.992 360.144C878.992 361.296 878.608 362.213 877.84 362.896C877.115 363.536 876.069 363.877 874.704 363.92C874.747 363.707 874.768 363.429 874.768 363.088C874.768 361.296 874.128 359.888 872.848 358.864C871.568 357.84 869.797 357.328 867.536 357.328C865.147 357.328 863.184 357.861 861.648 358.928C860.155 359.952 859.408 361.296 859.408 362.96C859.408 364.069 859.92 364.965 860.944 365.648C862.011 366.331 863.824 366.949 866.384 367.504C870.181 368.315 872.976 369.445 874.768 370.896C876.603 372.304 877.52 374.117 877.52 376.336C877.52 379.579 876.261 382.096 873.744 383.888C871.227 385.68 867.728 386.576 863.248 386.576ZM893.449 386.576C891.188 386.576 889.417 385.979 888.137 384.784C886.9 383.589 886.281 381.925 886.281 379.792C886.281 379.067 886.345 378.363 886.473 377.68L889.929 357.904H884.169C884.382 356.667 884.83 355.707 885.513 355.024C886.238 354.341 887.134 354 888.201 354H890.633L891.785 347.6C892.254 345.083 894.025 343.824 897.097 343.824L895.305 354H903.817C903.604 355.28 903.113 356.261 902.345 356.944C901.62 357.584 900.66 357.904 899.465 357.904H894.665L891.209 377.488C891.081 378.171 891.017 378.768 891.017 379.28C891.017 380.389 891.316 381.2 891.913 381.712C892.51 382.181 893.47 382.416 894.793 382.416C896.244 382.416 897.694 382.032 899.145 381.264C899.358 381.52 899.465 381.947 899.465 382.544C899.465 383.696 898.889 384.656 897.737 385.424C896.585 386.192 895.156 386.576 893.449 386.576ZM932.474 382.352C932.005 385.168 930.255 386.576 927.226 386.576L927.994 382.352C928.463 382.011 928.975 381.499 929.53 380.816L929.338 380.496C927.589 382.416 925.647 383.909 923.514 384.976C921.381 386.043 919.205 386.576 916.986 386.576C914.042 386.576 911.674 385.744 909.882 384.08C908.09 382.373 907.194 380.155 907.194 377.424C907.194 376.741 907.258 376.016 907.386 375.248L910.522 357.2C910.949 354.683 912.762 353.424 915.962 353.424L912.122 375.12C911.994 375.803 911.93 376.443 911.93 377.04C911.93 380.624 914.149 382.416 918.586 382.416C920.207 382.416 921.786 382.075 923.322 381.392C924.858 380.667 926.159 379.728 927.226 378.576C928.293 377.424 928.933 376.187 929.146 374.864L932.218 357.2C932.474 355.92 933.05 354.981 933.946 354.384C934.842 353.744 936.079 353.424 937.658 353.424L932.474 382.352ZM952.878 386.576C949.678 386.576 947.096 385.765 945.134 384.144C943.214 382.48 942.254 380.283 942.254 377.552C942.254 376.912 942.318 376.251 942.446 375.568L944.43 364.368C945.027 360.997 946.627 358.331 949.23 356.368C951.875 354.405 955.096 353.424 958.894 353.424C962.862 353.424 966.019 355.045 968.366 358.288L968.622 357.968C968.195 357.371 967.832 356.88 967.534 356.496L969.646 344.592C970.115 341.947 971.928 340.624 975.086 340.624L967.726 382.352C967.171 385.168 965.4 386.576 962.414 386.576L963.054 382.928C963.054 382.928 963.587 382.395 964.654 381.328L964.462 381.072C960.878 384.741 957.016 386.576 952.878 386.576ZM954.478 382.416C956.867 382.416 959 381.776 960.878 380.496C962.798 379.173 963.907 377.595 964.206 375.76L966.19 364.176C966.275 363.664 966.318 363.301 966.318 363.088C966.318 361.467 965.635 360.144 964.27 359.12C962.947 358.096 961.112 357.584 958.766 357.584C956.035 357.584 953.838 358.203 952.174 359.44C950.51 360.635 949.486 362.32 949.102 364.496L947.182 375.44C947.096 375.824 947.054 376.357 947.054 377.04C947.054 378.789 947.672 380.133 948.91 381.072C950.19 381.968 952.046 382.416 954.478 382.416ZM986.977 347.984C986.038 347.984 985.249 347.685 984.609 347.088C984.012 346.491 983.713 345.765 983.713 344.912C983.713 343.803 984.161 342.821 985.057 341.968C985.996 341.072 987.062 340.624 988.257 340.624C989.196 340.624 989.964 340.901 990.561 341.456C991.158 342.011 991.457 342.736 991.457 343.632C991.457 344.741 990.988 345.744 990.049 346.64C989.153 347.536 988.129 347.984 986.977 347.984ZM982.945 357.264C983.414 354.704 985.206 353.424 988.321 353.424L983.137 382.8C982.71 385.317 980.918 386.576 977.761 386.576L982.945 357.264ZM1003.83 386.576C1001.65 386.576 999.687 386.192 997.938 385.424C996.188 384.613 994.802 383.504 993.778 382.096C992.754 380.688 992.242 379.088 992.242 377.296C992.242 376.571 992.284 376.016 992.37 375.632L994.29 364.624C994.887 361.211 996.594 358.501 999.41 356.496C1002.27 354.448 1005.7 353.424 1009.71 353.424C1012.02 353.424 1014.04 353.851 1015.79 354.704C1017.59 355.557 1018.95 356.731 1019.89 358.224C1020.87 359.675 1021.36 361.275 1021.36 363.024C1021.36 363.323 1021.32 363.856 1021.23 364.624L1019.25 375.632C1018.69 378.832 1017.03 381.456 1014.26 383.504C1011.48 385.552 1008.01 386.576 1003.83 386.576ZM1004.59 382.48C1007.28 382.48 1009.54 381.84 1011.38 380.56C1013.25 379.28 1014.36 377.595 1014.71 375.504L1016.56 364.752C1016.65 364.069 1016.69 363.579 1016.69 363.28C1016.69 361.531 1016.03 360.144 1014.71 359.12C1013.43 358.053 1011.51 357.52 1008.95 357.52C1006.26 357.52 1003.97 358.203 1002.1 359.568C1000.26 360.891 999.154 362.619 998.77 364.752L996.914 375.504C996.828 376.101 996.786 376.507 996.786 376.72C996.786 378.469 997.426 379.877 998.706 380.944C1000.03 381.968 1001.99 382.48 1004.59 382.48Z" fill="url(#paint0_linear_375_3)"/>
<path d="M992.659 109.706C986.829 109.529 981.531 110.323 976.752 111.797C968.727 116.888 952.711 132.391 952.855 153.679V153.679C952.673 160.364 957.944 165.931 964.63 166.113L989.624 166.795C997.464 167.008 1004.25 161.385 1005.5 153.642V153.642C1008.16 158.583 1013.86 169.539 1015.36 173.836C1015.98 175.474 1016.81 177.855 1017.69 180.579C1022.78 185.171 1034.54 195.19 1040.86 198.532C1043.89 179.425 1045.96 153.627 1040.03 140.998C1039.22 138.845 1037.9 136.221 1036.06 133.418C1015.46 131.407 1001.33 116.952 996.84 109.976C995.481 109.841 994.087 109.749 992.659 109.706Z" fill="#FF3314"/>
<path d="M943.746 143.128C942.354 145.732 939.616 155.107 939.795 171.776L1005.64 173.571L1015.36 173.836C1013.86 169.539 1008.16 158.583 1005.5 153.642V153.642C1004.25 161.385 997.464 167.008 989.624 166.795L964.63 166.113C957.944 165.931 952.673 160.364 952.855 153.679V153.679C952.711 132.391 968.727 116.888 976.752 111.797C957.944 117.602 947.186 133.954 943.746 143.128Z" fill="#B21800"/>
<path d="M1021.95 198.017L1023.86 215.277L1035.24 217.172L1038.06 213.4C1038.95 209.406 1039.95 204.271 1040.86 198.532C1034.54 195.19 1022.78 185.171 1017.69 180.579C1019.46 186.1 1021.4 193.029 1021.95 198.017Z" fill="#B21800"/>
<path d="M1036.06 133.418C1029.69 123.767 1017.02 111.991 996.84 109.976C1001.33 116.952 1015.46 131.407 1036.06 133.418Z" fill="#FF7561"/>
<path d="M936.288 171.681C931.915 171.561 928.273 175.01 928.153 179.384L928.042 183.456C927.862 190.079 933.084 195.594 939.707 195.775L1021.95 198.017C1021.4 193.029 1019.46 186.1 1017.69 180.579C1016.81 177.855 1015.98 175.474 1015.36 173.836L1005.64 173.571V173.571C1010.81 184.364 1000.74 191.665 988.78 191.338L954.005 190.39C943.946 190.116 936.014 181.739 936.288 171.681V171.681V171.681Z" fill="#E3E3E3"/>
<path d="M939.795 171.776L936.288 171.681V171.681C936.014 181.739 943.946 190.116 954.005 190.39L988.78 191.338C1000.74 191.665 1010.81 184.364 1005.64 173.571V173.571L939.795 171.776Z" fill="#F7F9F2"/>
<path fill-rule="evenodd" clip-rule="evenodd" d="M1038.47 221.336C1040.45 219.394 1041.71 216.715 1041.79 213.728C1041.95 207.605 1037.13 202.506 1031 202.339C1029.35 202.294 1027.77 202.614 1026.34 203.226C1023.99 209.277 1023.13 221.37 1038.47 221.336Z" fill="white"/>
<path d="M1019.61 213.123C1019.45 219.246 1024.28 224.345 1030.4 224.512C1033.53 224.597 1036.4 223.373 1038.47 221.336C1023.13 221.37 1023.99 209.277 1026.34 203.226C1022.48 204.878 1019.74 208.656 1019.61 213.123Z" fill="#E3E3E3"/>
<defs>
<linearGradient id="paint0_linear_375_3" x1="618.5" y1="365.5" x2="1057" y2="370" gradientUnits="userSpaceOnUse">
<stop stop-color="#0019FF"/>
<stop offset="1" stop-color="#003D84"/>
</linearGradient>
</defs>
</svg>
