<svg width="320" height="23" viewBox="0 0 320 23" fill="none" xmlns="http://www.w3.org/2000/svg">
<path d="M312.592 18.0478C311.408 18.0478 310.248 17.8798 309.112 17.5438C308.419 17.326 307.793 17.0591 307.235 16.7433C306.658 16.4165 306.516 15.678 306.838 15.0977C307.248 14.3589 308.233 14.1741 308.996 14.5367C309.26 14.6622 309.539 14.7765 309.832 14.8798C310.696 15.1838 311.6 15.3358 312.544 15.3358C313.664 15.3358 314.536 15.1118 315.16 14.6638C315.784 14.1998 316.096 13.5758 316.096 12.7918C316.096 12.0238 315.808 11.4158 315.232 10.9678C314.656 10.5198 313.728 10.2958 312.448 10.2958C311.6 10.2958 310.912 9.60813 310.912 8.75983V8.73027C310.912 8.36181 311.042 8.00517 311.279 7.72309L315.267 2.97783C315.463 2.74423 315.839 2.81361 315.939 3.10187C316.028 3.35727 315.838 3.62381 315.568 3.62381H308.404C307.682 3.62381 307.096 3.0382 307.096 2.31581C307.096 1.59342 307.682 1.00781 308.404 1.00781H317.014C317.859 1.00781 318.544 1.69298 318.544 2.53818C318.544 2.89835 318.417 3.24698 318.186 3.52273L313.972 8.53655C313.841 8.69316 313.615 8.73188 313.439 8.62817L312.919 8.32238C312.695 8.19072 312.789 7.84781 313.048 7.84781C315.112 7.84781 316.656 8.31181 317.68 9.23981C318.72 10.1518 319.24 11.3278 319.24 12.7678C319.24 13.7118 319 14.5838 318.52 15.3838C318.04 16.1838 317.304 16.8318 316.312 17.3278C315.336 17.8078 314.096 18.0478 312.592 18.0478Z" fill="white"/>
<path d="M294.588 17.8076C293.781 17.8076 293.128 17.1536 293.128 16.3469C293.128 15.9464 293.292 15.5634 293.582 15.2876L299.799 9.38358C300.359 8.85558 300.776 8.39158 301.048 7.99158C301.32 7.59158 301.496 7.22358 301.576 6.88758C301.672 6.53558 301.72 6.20758 301.72 5.90358C301.72 5.13558 301.456 4.54358 300.928 4.12758C300.4 3.69558 299.624 3.47958 298.6 3.47958C297.784 3.47958 297.039 3.62358 296.367 3.91158C296.12 4.02006 295.886 4.1501 295.664 4.30171C295.034 4.73158 294.182 4.86089 293.577 4.39599C292.968 3.92759 292.84 3.04113 293.427 2.54618C293.916 2.1343 294.48 1.78943 295.12 1.51158C296.24 1.01558 297.487 0.767578 298.863 0.767578C300.079 0.767578 301.135 0.967578 302.031 1.36758C302.943 1.75158 303.64 2.30358 304.12 3.02358C304.616 3.74358 304.863 4.59958 304.863 5.59158C304.863 6.13558 304.792 6.67958 304.648 7.22358C304.504 7.75158 304.232 8.31158 303.832 8.90358C303.432 9.49558 302.847 10.1596 302.079 10.8956L296.766 15.9427C296.552 16.1454 296.205 16.0916 296.063 15.8338C295.898 15.5343 296.114 15.1676 296.456 15.1676H304.192C304.921 15.1676 305.512 15.7586 305.512 16.4876C305.512 17.2166 304.921 17.8076 304.192 17.8076H294.588Z" fill="white"/>
<path d="M284.227 18.0476C282.899 18.0476 281.699 17.7116 280.627 17.0396C279.571 16.3676 278.739 15.3916 278.131 14.1116C277.523 12.8156 277.219 11.2476 277.219 9.40758C277.219 7.56758 277.523 6.00758 278.131 4.72758C278.739 3.43158 279.571 2.44758 280.627 1.77558C281.699 1.10358 282.899 0.767578 284.227 0.767578C285.571 0.767578 286.771 1.10358 287.827 1.77558C288.883 2.44758 289.715 3.43158 290.323 4.72758C290.947 6.00758 291.259 7.56758 291.259 9.40758C291.259 11.2476 290.947 12.8156 290.323 14.1116C289.715 15.3916 288.883 16.3676 287.827 17.0396C286.771 17.7116 285.571 18.0476 284.227 18.0476ZM284.227 15.3356C285.011 15.3356 285.691 15.1276 286.267 14.7116C286.843 14.2796 287.291 13.6236 287.611 12.7436C287.947 11.8636 288.115 10.7516 288.115 9.40758C288.115 8.04758 287.947 6.93558 287.611 6.07158C287.291 5.19158 286.843 4.54358 286.267 4.12758C285.691 3.69558 285.011 3.47958 284.227 3.47958C283.475 3.47958 282.803 3.69558 282.211 4.12758C281.635 4.54358 281.179 5.19158 280.843 6.07158C280.523 6.93558 280.363 8.04758 280.363 9.40758C280.363 10.7516 280.523 11.8636 280.843 12.7436C281.179 13.6236 281.635 14.2796 282.211 14.7116C282.803 15.1276 283.475 15.3356 284.227 15.3356Z" fill="white"/>
<path d="M264.494 17.8076C263.688 17.8076 263.034 17.1536 263.034 16.3469C263.034 15.9464 263.198 15.5634 263.489 15.2876L269.706 9.38358C270.266 8.85558 270.682 8.39158 270.954 7.99158C271.226 7.59158 271.402 7.22358 271.482 6.88758C271.578 6.53558 271.626 6.20758 271.626 5.90358C271.626 5.13558 271.362 4.54358 270.834 4.12758C270.306 3.69558 269.53 3.47958 268.506 3.47958C267.69 3.47958 266.946 3.62358 266.274 3.91158C266.027 4.02006 265.792 4.1501 265.57 4.30171C264.94 4.73158 264.088 4.86089 263.483 4.39599C262.875 3.92759 262.746 3.04113 263.334 2.54618C263.823 2.1343 264.387 1.78943 265.026 1.51158C266.146 1.01558 267.394 0.767578 268.77 0.767578C269.986 0.767578 271.042 0.967578 271.938 1.36758C272.85 1.75158 273.546 2.30358 274.026 3.02358C274.522 3.74358 274.77 4.59958 274.77 5.59158C274.77 6.13558 274.698 6.67958 274.554 7.22358C274.41 7.75158 274.138 8.31158 273.738 8.90358C273.338 9.49558 272.754 10.1596 271.986 10.8956L266.672 15.9427C266.458 16.1454 266.111 16.0916 265.969 15.8338C265.804 15.5343 266.02 15.1676 266.362 15.1676H274.098C274.827 15.1676 275.418 15.7586 275.418 16.4876C275.418 17.2166 274.827 17.8076 274.098 17.8076H264.494Z" fill="white"/>
<path d="M246.48 15.5827C246.272 15.8653 245.942 16.0321 245.592 16.0321C244.692 16.0321 244.171 15.0139 244.696 14.2842L245.934 12.566C246.436 11.8693 246.437 10.9302 245.937 10.2323L244.691 8.49295C244.167 7.76165 244.689 6.74414 245.589 6.74414C245.941 6.74414 246.273 6.91219 246.481 7.19654L248.691 10.2158C249.207 10.9206 249.205 11.8788 248.688 12.5823L246.48 15.5827ZM251.472 15.5827C251.264 15.8653 250.934 16.0321 250.584 16.0321C249.684 16.0321 249.163 15.014 249.688 14.2842L250.926 12.566C251.428 11.8693 251.429 10.9302 250.929 10.2323L249.683 8.49294C249.159 7.76165 249.681 6.74414 250.581 6.74414C250.933 6.74414 251.264 6.91219 251.473 7.19654L253.683 10.2158C254.199 10.9206 254.197 11.8788 253.68 12.5823L251.472 15.5827Z" fill="white"/>
<path d="M235.856 17.8078C234.994 17.8078 234.296 17.1094 234.296 16.2478V5.64781C234.296 4.54324 233.4 3.64781 232.296 3.64781H230.048C229.319 3.64781 228.728 3.05683 228.728 2.32781C228.728 1.5988 229.319 1.00781 230.048 1.00781H241.664C242.393 1.00781 242.984 1.5988 242.984 2.32781C242.984 3.05683 242.393 3.64781 241.664 3.64781H239.416C238.311 3.64781 237.416 4.54324 237.416 5.64781V16.2478C237.416 17.1094 236.717 17.8078 235.856 17.8078Z" fill="white"/>
<path d="M224.784 17.8078C223.922 17.8078 223.224 17.1094 223.224 16.2478V2.56782C223.224 1.70625 223.922 1.00781 224.784 1.00781C225.645 1.00781 226.344 1.70625 226.344 2.56782V16.2478C226.344 17.1094 225.645 17.8078 224.784 17.8078Z" fill="white"/>
<path d="M203.45 17.8082C202.364 17.8082 201.75 16.5622 202.411 15.7008L205.921 11.1306C206.082 10.9217 206.416 11.0407 206.408 11.3041C206.4 11.56 206.075 11.6641 205.92 11.4602L202.625 7.12003C201.962 6.24692 202.584 4.99219 203.681 4.99219C204.099 4.99219 204.492 5.18936 204.743 5.5242L207.733 9.52378C207.89 9.73348 207.74 10.0322 207.478 10.0322C207.216 10.0322 207.066 9.73258 207.224 9.52301L210.248 5.50392C210.49 5.18171 210.87 4.99219 211.273 4.99219C212.337 4.99219 212.939 6.21159 212.292 7.05582L208.95 11.4187C208.79 11.6269 208.457 11.5113 208.461 11.249C208.465 10.9907 208.793 10.8825 208.95 11.0877L212.443 15.6562C213.117 16.5371 212.489 17.8082 211.38 17.8082C210.955 17.8082 210.556 17.6069 210.304 17.2657L207.18 13.0445C207.018 12.8247 207.199 12.5173 207.47 12.5538C207.704 12.5853 207.818 12.8571 207.677 13.0461L204.498 17.2843C204.251 17.6141 203.862 17.8082 203.45 17.8082Z" fill="white"/>
<path d="M193.991 17.9757C192.567 17.9757 191.319 17.6957 190.247 17.1357C189.191 16.5597 188.367 15.7757 187.775 14.7837C187.199 13.7917 186.911 12.6637 186.911 11.3997C186.911 10.1197 187.191 8.99166 187.751 8.01566C188.327 7.02366 189.111 6.24766 190.103 5.68766C191.111 5.12766 192.255 4.84766 193.535 4.84766C194.783 4.84766 195.895 5.11966 196.871 5.66366C197.847 6.20766 198.615 6.97566 199.175 7.96766C199.735 8.95966 200.015 10.1277 200.015 11.4717C200.015 11.5997 200.007 11.7437 199.991 11.9037C199.991 12.1638 199.77 12.3597 199.51 12.3597H190.283C189.733 12.3597 189.287 11.9137 189.287 11.3637C189.287 10.8136 189.733 10.3677 190.283 10.3677H197.448C197.69 10.3677 197.771 10.6922 197.557 10.8058C197.4 10.8891 197.21 10.7726 197.198 10.5953C197.161 10.0208 197.012 9.50488 196.751 9.04766C196.431 8.48766 195.991 8.04766 195.431 7.72766C194.887 7.40766 194.255 7.24766 193.535 7.24766C192.799 7.24766 192.151 7.40766 191.591 7.72766C191.047 8.04766 190.615 8.49566 190.295 9.07166C189.991 9.63166 189.839 10.2957 189.839 11.0637V11.5437C189.839 12.3117 190.015 12.9917 190.367 13.5837C190.719 14.1757 191.215 14.6317 191.855 14.9517C192.495 15.2717 193.231 15.4317 194.063 15.4317C194.783 15.4317 195.431 15.3197 196.007 15.0957C196.163 15.0347 196.315 14.9644 196.462 14.8845C197.11 14.5333 197.963 14.5232 198.447 15.0788C198.851 15.5434 198.862 16.2476 198.378 16.6281C197.961 16.9552 197.491 17.2284 196.967 17.4477C196.103 17.7997 195.111 17.9757 193.991 17.9757Z" fill="white"/>
<path d="M182.529 17.808C181.701 17.808 181.029 17.1364 181.029 16.308V1.5C181.029 0.671575 181.701 0 182.529 0C183.358 0 184.029 0.671573 184.029 1.5V16.308C184.029 17.1364 183.358 17.808 182.529 17.808Z" fill="white"/>
<path d="M171.68 17.9757C170.64 17.9757 169.688 17.7357 168.824 17.2557C167.976 16.7757 167.296 16.0557 166.784 15.0957C166.288 14.1197 166.04 12.8877 166.04 11.3997C166.04 9.89566 166.28 8.66366 166.76 7.70366C167.256 6.74366 167.928 6.03166 168.776 5.56766C169.624 5.08766 170.592 4.84766 171.68 4.84766C172.944 4.84766 174.056 5.11966 175.016 5.66366C175.992 6.20766 176.76 6.96766 177.32 7.94366C177.896 8.91966 178.184 10.0717 178.184 11.3997C178.184 12.7277 177.896 13.8877 177.32 14.8797C176.76 15.8557 175.992 16.6157 175.016 17.1597C174.056 17.7037 172.944 17.9757 171.68 17.9757ZM166.076 22.4637C165.248 22.4637 164.576 21.7921 164.576 20.9637V6.41966C164.576 5.631 165.216 4.99166 166.004 4.99166C166.793 4.99166 167.432 5.63099 167.432 6.41966V8.01566L167.336 11.4237L167.576 14.8317V20.9637C167.576 21.7921 166.905 22.4637 166.076 22.4637ZM171.344 15.4077C172.064 15.4077 172.704 15.2477 173.264 14.9277C173.84 14.6077 174.296 14.1437 174.632 13.5357C174.968 12.9277 175.136 12.2157 175.136 11.3997C175.136 10.5677 174.968 9.85566 174.632 9.26366C174.296 8.65566 173.84 8.19166 173.264 7.87166C172.704 7.55166 172.064 7.39166 171.344 7.39166C170.624 7.39166 169.976 7.55166 169.4 7.87166C168.824 8.19166 168.368 8.65566 168.032 9.26366C167.696 9.85566 167.528 10.5677 167.528 11.3997C167.528 12.2157 167.696 12.9277 168.032 13.5357C168.368 14.1437 168.824 14.6077 169.4 14.9277C169.976 15.2477 170.624 15.4077 171.344 15.4077Z" fill="white"/>
<path d="M155.487 4.84766C156.511 4.84766 157.415 5.04766 158.199 5.44766C158.999 5.84766 159.623 6.46366 160.071 7.29566C160.519 8.11166 160.743 9.16766 160.743 10.4637V16.3077C160.743 17.1361 160.071 17.8077 159.243 17.8077C158.414 17.8077 157.743 17.1361 157.743 16.3077V10.8477C157.743 9.71166 157.495 8.86366 156.999 8.30366C156.503 7.74366 155.791 7.46366 154.863 7.46366C154.207 7.46366 153.623 7.60766 153.111 7.89566C152.615 8.18366 152.223 8.60766 151.935 9.16766C151.663 9.72766 151.527 10.4397 151.527 11.3037V16.3077C151.527 17.1361 150.855 17.8077 150.027 17.8077C149.198 17.8077 148.527 17.1361 148.527 16.3077V10.8477C148.527 9.71166 148.279 8.86366 147.783 8.30366C147.287 7.74366 146.575 7.46366 145.647 7.46366C144.991 7.46366 144.407 7.60766 143.895 7.89566C143.399 8.18366 143.007 8.60766 142.719 9.16766C142.447 9.72766 142.311 10.4397 142.311 11.3037V16.3077C142.311 17.1361 141.639 17.8077 140.811 17.8077C139.982 17.8077 139.311 17.1361 139.311 16.3077V6.41966C139.311 5.63099 139.95 4.99166 140.739 4.99166H141.516C141.875 4.99166 142.167 5.28306 142.167 5.64252V7.39369C142.167 7.64428 141.829 7.72403 141.717 7.49989C141.683 7.4319 141.683 7.35149 141.72 7.2849C142.149 6.5054 142.754 5.90898 143.535 5.49566C144.367 5.06366 145.311 4.84766 146.367 4.84766C147.567 4.84766 148.607 5.14366 149.487 5.73566C150.186 6.19765 150.7 6.84477 151.029 7.67703C151.153 7.99191 150.843 8.278 150.523 8.16702C150.287 8.08532 150.17 7.81947 150.29 7.60109C150.713 6.83202 151.333 6.20221 152.151 5.71166C153.111 5.13566 154.223 4.84766 155.487 4.84766Z" fill="white"/>
<path d="M129.602 17.9757C128.29 17.9757 127.122 17.6957 126.098 17.1357C125.074 16.5597 124.266 15.7757 123.674 14.7837C123.082 13.7917 122.786 12.6637 122.786 11.3997C122.786 10.1197 123.082 8.99166 123.674 8.01566C124.266 7.02366 125.074 6.24766 126.098 5.68766C127.122 5.12766 128.29 4.84766 129.602 4.84766C130.93 4.84766 132.106 5.12766 133.13 5.68766C134.17 6.24766 134.978 7.01566 135.554 7.99166C136.146 8.96766 136.442 10.1037 136.442 11.3997C136.442 12.6637 136.146 13.7917 135.554 14.7837C134.978 15.7757 134.17 16.5597 133.13 17.1357C132.106 17.6957 130.93 17.9757 129.602 17.9757ZM129.602 15.4077C130.338 15.4077 130.994 15.2477 131.57 14.9277C132.146 14.6077 132.594 14.1437 132.914 13.5357C133.25 12.9277 133.418 12.2157 133.418 11.3997C133.418 10.5677 133.25 9.85566 132.914 9.26366C132.594 8.65566 132.146 8.19166 131.57 7.87166C130.994 7.55166 130.346 7.39166 129.626 7.39166C128.89 7.39166 128.234 7.55166 127.658 7.87166C127.098 8.19166 126.65 8.65566 126.314 9.26366C125.978 9.85566 125.81 10.5677 125.81 11.3997C125.81 12.2157 125.978 12.9277 126.314 13.5357C126.65 14.1437 127.098 14.6077 127.658 14.9277C128.234 15.2477 128.882 15.4077 129.602 15.4077Z" fill="white"/>
<path d="M114.96 18.0476C113.68 18.0476 112.488 17.8396 111.384 17.4236C110.296 16.9916 109.344 16.3916 108.528 15.6236C107.728 14.8396 107.104 13.9196 106.656 12.8636C106.208 11.8076 105.984 10.6556 105.984 9.40758C105.984 8.15958 106.208 7.00758 106.656 5.95158C107.104 4.89558 107.736 3.98358 108.552 3.21558C109.368 2.43158 110.32 1.83158 111.408 1.41558C112.496 0.983578 113.688 0.767578 114.984 0.767578C116.36 0.767578 117.616 1.00758 118.752 1.48758C119.464 1.77825 120.107 2.15997 120.68 2.63274C121.261 3.1113 121.203 3.97943 120.655 4.49488C120.083 5.03314 119.191 4.98174 118.543 4.53813C118.235 4.32763 117.913 4.15078 117.576 4.00758C116.824 3.67158 116.008 3.50358 115.128 3.50358C114.248 3.50358 113.44 3.64758 112.704 3.93558C111.984 4.22358 111.352 4.63158 110.808 5.15958C110.28 5.68758 109.864 6.31158 109.56 7.03158C109.272 7.75158 109.128 8.54358 109.128 9.40758C109.128 10.2716 109.272 11.0636 109.56 11.7836C109.864 12.5036 110.28 13.1276 110.808 13.6556C111.352 14.1836 111.984 14.5916 112.704 14.8796C113.44 15.1676 114.248 15.3116 115.128 15.3116C116.008 15.3116 116.824 15.1516 117.576 14.8316C117.912 14.6815 118.234 14.4979 118.541 14.2808C119.188 13.8235 120.089 13.77 120.663 14.3163C121.206 14.8336 121.257 15.699 120.676 16.1743C120.104 16.6431 119.462 17.0275 118.752 17.3276C117.616 17.8076 116.352 18.0476 114.96 18.0476Z" fill="white"/>
<path d="M88.174 18.0476C86.862 18.0476 85.654 17.8316 84.55 17.3996C83.446 16.9676 82.4861 16.3676 81.6701 15.5996C80.8541 14.8156 80.222 13.9036 79.774 12.8636C79.326 11.8076 79.1021 10.6556 79.1021 9.40758C79.1021 8.15958 79.326 7.01558 79.774 5.97558C80.222 4.91958 80.8541 4.00758 81.6701 3.23958C82.4861 2.45558 83.446 1.84758 84.55 1.41558C85.654 0.983578 86.854 0.767578 88.15 0.767578C89.462 0.767578 90.662 0.983578 91.75 1.41558C92.854 1.84758 93.8141 2.45558 94.6301 3.23958C95.4461 4.00758 96.078 4.91958 96.526 5.97558C96.974 7.01558 97.1981 8.15958 97.1981 9.40758C97.1981 10.6556 96.974 11.8076 96.526 12.8636C96.078 13.9196 95.4461 14.8316 94.6301 15.5996C93.8141 16.3676 92.854 16.9676 91.75 17.3996C90.662 17.8316 89.47 18.0476 88.174 18.0476ZM88.15 15.3116C88.998 15.3116 89.7821 15.1676 90.5021 14.8796C91.2221 14.5916 91.8461 14.1836 92.3741 13.6556C92.9021 13.1116 93.3101 12.4876 93.5981 11.7836C93.9021 11.0636 94.054 10.2716 94.054 9.40758C94.054 8.54358 93.9021 7.75958 93.5981 7.05558C93.3101 6.33558 92.9021 5.71158 92.3741 5.18358C91.8461 4.63958 91.2221 4.22358 90.5021 3.93558C89.7821 3.64758 88.998 3.50358 88.15 3.50358C87.302 3.50358 86.5181 3.64758 85.798 3.93558C85.094 4.22358 84.47 4.63958 83.926 5.18358C83.398 5.71158 82.982 6.33558 82.678 7.05558C82.39 7.75958 82.246 8.54358 82.246 9.40758C82.246 10.2556 82.39 11.0396 82.678 11.7596C82.982 12.4796 83.398 13.1116 83.926 13.6556C84.454 14.1836 85.0781 14.5916 85.798 14.8796C86.5181 15.1676 87.302 15.3116 88.15 15.3116Z" fill="white"/>
<path d="M67.9006 18.0476C66.5886 18.0476 65.3806 17.8316 64.2766 17.3996C63.1726 16.9676 62.2126 16.3676 61.3966 15.5996C60.5806 14.8156 59.9486 13.9036 59.5006 12.8636C59.0526 11.8076 58.8286 10.6556 58.8286 9.40758C58.8286 8.15958 59.0526 7.01558 59.5006 5.97558C59.9486 4.91958 60.5806 4.00758 61.3966 3.23958C62.2126 2.45558 63.1726 1.84758 64.2766 1.41558C65.3806 0.983578 66.5806 0.767578 67.8766 0.767578C69.1886 0.767578 70.3886 0.983578 71.4766 1.41558C72.5806 1.84758 73.5406 2.45558 74.3566 3.23958C75.1726 4.00758 75.8046 4.91958 76.2526 5.97558C76.7006 7.01558 76.9246 8.15958 76.9246 9.40758C76.9246 10.6556 76.7006 11.8076 76.2526 12.8636C75.8046 13.9196 75.1726 14.8316 74.3566 15.5996C73.5406 16.3676 72.5806 16.9676 71.4766 17.3996C70.3886 17.8316 69.1966 18.0476 67.9006 18.0476ZM67.8766 15.3116C68.7246 15.3116 69.5086 15.1676 70.2286 14.8796C70.9486 14.5916 71.5726 14.1836 72.1006 13.6556C72.6286 13.1116 73.0366 12.4876 73.3246 11.7836C73.6286 11.0636 73.7806 10.2716 73.7806 9.40758C73.7806 8.54358 73.6286 7.75958 73.3246 7.05558C73.0366 6.33558 72.6286 5.71158 72.1006 5.18358C71.5726 4.63958 70.9486 4.22358 70.2286 3.93558C69.5086 3.64758 68.7246 3.50358 67.8766 3.50358C67.0286 3.50358 66.2446 3.64758 65.5246 3.93558C64.8206 4.22358 64.1966 4.63958 63.6526 5.18358C63.1246 5.71158 62.7086 6.33558 62.4046 7.05558C62.1166 7.75958 61.9726 8.54358 61.9726 9.40758C61.9726 10.2556 62.1166 11.0396 62.4046 11.7596C62.7086 12.4796 63.1246 13.1116 63.6526 13.6556C64.1806 14.1836 64.8046 14.5916 65.5246 14.8796C66.2446 15.1676 67.0286 15.3116 67.8766 15.3116Z" fill="white"/>
<path d="M47.6272 18.0476C46.3152 18.0476 45.1072 17.8316 44.0032 17.3996C42.8992 16.9676 41.9392 16.3676 41.1232 15.5996C40.3072 14.8156 39.6752 13.9036 39.2272 12.8636C38.7792 11.8076 38.5552 10.6556 38.5552 9.40758C38.5552 8.15958 38.7792 7.01558 39.2272 5.97558C39.6752 4.91958 40.3072 4.00758 41.1232 3.23958C41.9392 2.45558 42.8992 1.84758 44.0032 1.41558C45.1072 0.983578 46.3072 0.767578 47.6032 0.767578C48.9152 0.767578 50.1152 0.983578 51.2032 1.41558C52.3072 1.84758 53.2672 2.45558 54.0832 3.23958C54.8992 4.00758 55.5312 4.91958 55.9792 5.97558C56.4272 7.01558 56.6512 8.15958 56.6512 9.40758C56.6512 10.6556 56.4272 11.8076 55.9792 12.8636C55.5312 13.9196 54.8992 14.8316 54.0832 15.5996C53.2672 16.3676 52.3072 16.9676 51.2032 17.3996C50.1152 17.8316 48.9232 18.0476 47.6272 18.0476ZM47.6032 15.3116C48.4512 15.3116 49.2352 15.1676 49.9552 14.8796C50.6752 14.5916 51.2992 14.1836 51.8272 13.6556C52.3552 13.1116 52.7632 12.4876 53.0512 11.7836C53.3552 11.0636 53.5072 10.2716 53.5072 9.40758C53.5072 8.54358 53.3552 7.75958 53.0512 7.05558C52.7632 6.33558 52.3552 5.71158 51.8272 5.18358C51.2992 4.63958 50.6752 4.22358 49.9552 3.93558C49.2352 3.64758 48.4512 3.50358 47.6032 3.50358C46.7552 3.50358 45.9712 3.64758 45.2512 3.93558C44.5472 4.22358 43.9232 4.63958 43.3792 5.18358C42.8512 5.71158 42.4352 6.33558 42.1312 7.05558C41.8432 7.75958 41.6992 8.54358 41.6992 9.40758C41.6992 10.2556 41.8432 11.0396 42.1312 11.7596C42.4352 12.4796 42.8512 13.1116 43.3792 13.6556C43.9072 14.1836 44.5312 14.5916 45.2512 14.8796C45.9712 15.1676 46.7552 15.3116 47.6032 15.3116Z" fill="white"/>
<path d="M29.6056 16.0321C29.2548 16.0321 28.9249 15.8653 28.717 15.5827L26.5095 12.5823C25.9918 11.8788 25.9906 10.9206 26.5065 10.2158L28.7165 7.19654C28.9246 6.91219 29.2559 6.74414 29.6083 6.74414C30.5079 6.74414 31.0306 7.76165 30.5066 8.49295L29.2604 10.2323C28.7604 10.9302 28.7615 11.8693 29.2633 12.566L30.5008 14.2842C31.0263 15.0139 30.5049 16.0321 29.6056 16.0321ZM34.5976 16.0321C34.2468 16.0321 33.9169 15.8653 33.709 15.5827L31.5015 12.5823C30.9838 11.8788 30.9826 10.9206 31.4985 10.2158L33.7085 7.19654C33.9166 6.91219 34.2479 6.74414 34.6003 6.74414C35.4999 6.74414 36.0226 7.76165 35.4986 8.49294L34.2524 10.2323C33.7524 10.9302 33.7535 11.8693 34.2553 12.566L35.4928 14.2842C36.0183 15.0139 35.4969 16.0321 34.5976 16.0321Z" fill="white"/>
<path d="M8.448 17.8795C7.248 17.8795 6.136 17.6635 5.112 17.2315C4.088 16.7995 3.192 16.1995 2.424 15.4315C1.656 14.6475 1.056 13.7435 0.624 12.7195C0.208 11.6955 0 10.5915 0 9.40755C0 8.22355 0.216 7.11955 0.648 6.09555C1.08 5.07155 1.68 4.17555 2.448 3.40755C3.216 2.62355 4.112 2.01555 5.136 1.58355C6.176 1.15155 7.296 0.935547 8.496 0.935547C9.696 0.935547 10.808 1.15155 11.832 1.58355C12.872 1.99955 13.768 2.59155 14.52 3.35955C15.288 4.12755 15.88 5.02355 16.296 6.04755C16.728 7.05555 16.944 8.15955 16.944 9.35955C16.944 10.5595 16.728 11.6795 16.296 12.7195C15.864 13.7435 15.256 14.6475 14.472 15.4315C13.704 16.1995 12.808 16.7995 11.784 17.2315C10.76 17.6635 9.648 17.8795 8.448 17.8795ZM8.424 16.5595C9.448 16.5595 10.392 16.3755 11.256 16.0075C12.12 15.6395 12.872 15.1355 13.512 14.4955C14.168 13.8395 14.672 13.0715 15.024 12.1915C15.376 11.3115 15.552 10.3675 15.552 9.35955C15.552 8.35155 15.376 7.41555 15.024 6.55155C14.672 5.68755 14.176 4.93555 13.536 4.29555C12.912 3.65555 12.168 3.15955 11.304 2.80755C10.456 2.43955 9.52 2.25555 8.496 2.25555C7.472 2.25555 6.52 2.43955 5.64 2.80755C4.776 3.15955 4.024 3.66355 3.384 4.31955C2.76 4.97555 2.264 5.73555 1.896 6.59955C1.544 7.46355 1.368 8.39955 1.368 9.40755C1.368 10.4155 1.544 11.3515 1.896 12.2155C2.248 13.0795 2.744 13.8395 3.384 14.4955C4.024 15.1515 4.776 15.6635 5.64 16.0315C6.504 16.3835 7.432 16.5595 8.424 16.5595ZM8.712 14.3035C7.736 14.3035 6.864 14.0955 6.096 13.6795C5.328 13.2635 4.728 12.6875 4.296 11.9515C3.864 11.2155 3.648 10.3675 3.648 9.40755C3.648 8.44755 3.864 7.59955 4.296 6.86355C4.728 6.12755 5.328 5.55155 6.096 5.13555C6.864 4.71955 7.736 4.51155 8.712 4.51155C9.624 4.51155 10.424 4.70355 11.112 5.08755C11.4901 5.28521 11.8198 5.52212 12.101 5.79826C12.5081 6.19799 12.348 6.84413 11.8713 7.15757C11.3728 7.48537 10.7195 7.30923 10.223 6.97831C10.1459 6.92692 10.0662 6.88066 9.984 6.83955C9.6 6.64755 9.168 6.55155 8.688 6.55155C8.176 6.55155 7.712 6.67155 7.296 6.91155C6.896 7.13555 6.568 7.46355 6.312 7.89555C6.072 8.31155 5.952 8.81555 5.952 9.40755C5.952 9.99955 6.072 10.5115 6.312 10.9435C6.568 11.3595 6.896 11.6875 7.296 11.9275C7.712 12.1515 8.176 12.2635 8.688 12.2635C9.168 12.2635 9.6 12.1675 9.984 11.9755C10.0745 11.9303 10.1619 11.8788 10.2462 11.8211C10.7285 11.491 11.3645 11.3134 11.859 11.625C12.3415 11.929 12.511 12.5725 12.112 12.9799C11.8284 13.2694 11.4951 13.5186 11.112 13.7275C10.424 14.1115 9.624 14.3035 8.712 14.3035Z" fill="white"/>
</svg>
